Coordinates
version=1
nRows=26
nColumns=24
inDegrees=yes

Units are S.I. units (second, meters, Newtons, ...)
Angles are in degrees.

endheader
time	pelvis_tilt	pelvis_list	pelvis_rotation	pelvis_tx	pelvis_ty	pelvis_tz	hip_flexion_r	hip_adduction_r	hip_rotation_r	knee_angle_r	ankle_angle_r	subtalar_angle_r	mtp_angle_r	hip_flexion_l	hip_adduction_l	hip_rotation_l	knee_angle_l	ankle_angle_l	subtalar_angle_l	mtp_angle_l	lumbar_extension	lumbar_bending	lumbar_rotation
      1.46633333	      3.76838194	      4.44843824	     -2.14293958	      0.32896598	      1.03316870	      0.30190136	     13.20955966	     -8.39886418	     -7.94120951	    -69.71840492	     -2.81051288	     -6.40812159	      1.15204373	      4.12479115	      9.36537282	      5.90423068	    -12.90880202	      4.73668696	    -14.50889238	     -1.63649981	     -7.51287703	     -5.92840966	      3.85705732
      1.47050000	      3.75083111	      4.27424620	     -2.08822911	      0.33362245	      1.03395609	      0.30148487	     13.82293052	     -8.19441660	     -7.98414699	    -69.47932704	     -2.34751559	     -6.28972905	      1.14955402	      3.68537882	      9.19718787	      6.00803344	    -12.59404048	      4.80411517	    -14.48704458	     -1.64486468	     -7.57989055	     -5.69396447	      3.75376140
      1.47466667	      3.75198191	      4.09181186	     -2.02056680	      0.33827150	      1.03476292	      0.30104376	     14.39310210	     -7.98462743	     -8.04641334	    -69.17360032	     -1.90542956	     -6.16210684	      1.14790945	      3.22269730	      9.02097740	      6.12580701	    -12.27334616	      4.87039127	    -14.46638742	     -1.65515229	     -7.67160776	     -5.44871092	      3.63195238
      1.47883333	      3.77921466	      3.92543045	     -1.94341816	      0.34291635	      1.03556204	      0.30058658	     14.92015373	     -7.79897655	     -8.12293660	    -68.82116956	     -1.47082482	     -6.02424656	      1.14098739	      2.72471981	      8.86309891	      6.26309563	    -11.93349554	      4.93200271	    -14.45974154	     -1.67375382	     -7.78166428	     -5.22834200	      3.45256800
      1.48300000	      3.78074502	      3.75044524	     -1.85198920	      0.34754644	      1.03629199	      0.30011664	     15.45806954	     -7.60142039	     -8.21198093	    -68.41254027	     -1.07276963	     -5.94872370	      1.13408280	      2.26568432	      8.69260940	      6.39665984	    -11.61612767	      4.99094994	    -14.45109383	     -1.69536226	     -7.87460030	     -4.99069165	      3.29722560
      1.48716667	      3.77256854	      3.57564945	     -1.75304477	      0.35214061	      1.03696700	      0.29965129	     15.99353231	     -7.39945138	     -8.30541917	    -67.95150253	     -0.68543029	     -5.91942729	      1.13533609	      1.83110665	      8.51846014	      6.51031528	    -11.32017962	      5.05394577	    -14.41565337	     -1.70807928	     -7.96474512	     -4.75106442	      3.19603768
      1.49133333	      3.81399411	      3.40267787	     -1.64613415	      0.35676378	      1.03769185	      0.29915719	     16.44921992	     -7.21055025	     -8.41885302	    -67.42808392	     -0.31783202	     -5.85747068	      1.13081114	      1.32383340	      8.34834138	      6.66150115	    -10.98724271	      5.12317191	    -14.39453729	     -1.73272597	     -8.09749972	     -4.51221742	      2.98835565
      1.49550000	      3.79551804	      3.24942048	     -1.53625876	      0.36136857	      1.03827469	      0.29868034	     16.96492876	     -7.03554413	     -8.52342101	    -66.86814359	      0.04643319	     -5.88636207	      1.13445258	      0.90460921	      8.19225682	      6.75827181	    -10.69241052	      5.18498914	    -14.34749735	     -1.74202130	     -8.14370824	     -4.29818348	      2.90663494
      1.49966667	      3.84980323	      3.07469476	     -1.40574372	      0.36595294	      1.03894260	      0.29816414	     17.36917852	     -6.84669758	     -8.65782341	    -66.23313330	      0.37151324	     -5.85452293	      1.13115352	      0.39464067	      8.01675920	      6.93337675	    -10.37644394	      5.26198497	    -14.32378286	     -1.76698334	     -8.32152125	     -4.05403372	      2.66619201
      1.50383333	      3.82595511	      2.93214121	     -1.28099653	      0.37055196	      1.03943481	      0.29767525	     17.85518623	     -6.68560032	     -8.77583552	    -65.56973707	      0.72156860	     -5.91315331	      1.13398641	     -0.01019971	      7.86831024	      7.03827592	    -10.09399866	      5.32380716	    -14.27452495	     -1.77724270	     -8.36065616	     -3.84761461	      2.57378848
      1.50800000	      3.88143313	      2.76768054	     -1.14035792	      0.37512955	      1.04003903	      0.29716054	     18.22153241	     -6.50616230	     -8.91589491	    -64.82399750	      1.00056537	     -5.94857021	      1.12861279	     -0.51455117	      7.69834195	      7.21345706	     -9.78424998	      5.40176668	    -14.24596698	     -1.80356080	     -8.53380667	     -3.62165638	      2.32074359
      1.51216667	      3.85361555	      2.62148315	     -0.99707824	      0.37971592	      1.04044658	      0.29666842	     18.67068309	     -6.33976298	     -9.04693797	    -64.04826432	      1.31327380	     -6.02802053	      1.12707781	     -0.90258939	      7.54143974	      7.34201322	     -9.52452420	      5.47272446	    -14.20512726	     -1.81971506	     -8.58692667	     -3.42188939	      2.18719864
      1.51633333	      3.90784182	      2.48098168	     -0.85649504	      0.38431826	      1.04096127	      0.29616984	     19.00371068	     -6.18424548	     -9.18373281	    -63.20321824	      1.56883405	     -6.12954670	      1.11939746	     -1.40043148	      7.39074264	      7.49797914	     -9.22056283	      5.55234281	    -14.16178385	     -1.84366999	     -8.73176694	     -3.21503508	      1.96965199
      1.52050000	      3.90925569	      2.33994461	     -0.70633830	      0.38892108	      1.04134584	      0.29567550	     19.37659147	     -6.02327262	     -9.32099549	    -62.31010010	      1.82604798	     -6.26118352	      1.10914077	     -1.82386573	      7.23555719	      7.64446236	     -8.95056043	      5.63108637	    -14.11896228	     -1.86865550	     -8.81287853	     -3.01309950	      1.77624859
      1.52466667	      3.91263930	      2.21586458	     -0.55629450	      0.39352856	      1.04169620	      0.29519599	     19.72947271	     -5.87898104	     -9.45350469	    -61.36729268	      2.06896315	     -6.40388137	      1.09714153	     -2.24425438	      7.09605223	      7.78667752	     -8.68847817	      5.71339811	    -14.07330291	     -1.89162588	     -8.89445267	     -2.83371924	      1.59998106
      1.52883333	      3.89626277	      2.08677775	     -0.39718856	      0.39814116	      1.04197777	      0.29470620	     20.08065231	     -5.72753574	     -9.58937064	    -60.36925804	      2.32300679	     -6.55515643	      1.08830996	     -2.62900405	      6.94909040	      7.91810763	     -8.45612988	      5.79827073	    -14.02019984	     -1.90513872	     -8.95374772	     -2.64756196	      1.47325053
      1.53300000	      3.91060835	      1.97439422	     -0.25132678	      0.40277568	      1.04225378	      0.29425868	     20.38016202	     -5.58800950	     -9.71050288	    -59.31668003	      2.48988716	     -6.75984525	      1.06734723	     -3.06372929	      6.81684292	      8.06459316	     -8.18783019	      5.89723277	    -13.97058426	     -1.92617781	     -9.03866207	     -2.48129103	      1.25182152
      1.53716667	      3.89617869	      1.86247064	     -0.09461495	      0.40741370	      1.04246475	      0.29381021	     20.68710761	     -5.44580403	     -9.83313329	    -58.20890217	      2.66988380	     -6.97757273	      1.04008086	     -3.45417782	      6.68315931	      8.21327311	     -7.94611007	      5.98422515	    -13.92138616	     -1.95075811	     -9.09852753	     -2.31917073	      1.04960318
      1.54133333	      3.88878473	      1.76172230	      0.05986261	      0.41206530	      1.04263193	      0.29337886	     20.96620853	     -5.31408160	     -9.95196599	    -57.05208374	      2.83366590	     -7.19362022	      1.01005961	     -3.84902511	      6.55854229	      8.35129634	     -7.71181517	      6.08452066	    -13.87216524	     -1.97242140	     -9.15456159	     -2.16822648	      0.87889765
      1.54550000	      3.85213431	      1.66165138	      0.22328241	      0.41672056	      1.04273093	      0.29294617	     21.25277836	     -5.17976333	    -10.06823361	    -55.84052149	      3.01711458	     -7.39616552	      0.98774538	     -4.19663565	      6.43369673	      8.48822381	     -7.50998950	      6.18207112	    -13.81954293	     -1.98491852	     -9.18373930	     -2.01644354	      0.75430504
      1.54966667	      3.86154890	      1.57776486	      0.36927935	      0.42140200	      1.04284310	      0.29256582	     21.46902312	     -5.05286324	    -10.16635005	    -54.57197702	      3.08725544	     -7.69290469	      0.94042138	     -4.61507983	      6.32228522	      8.63002854	     -7.26465152	      6.28731673	    -13.77114537	     -2.00838201	     -9.25617314	     -1.89609203	      0.52366292
      1.55383333	      3.82299795	      1.48589025	      0.52974471	      0.42610585	      1.04285407	      0.29217713	     21.70915388	     -4.91794967	    -10.27331196	    -53.24822827	      3.18471450	     -7.94595477	      0.89463579	     -4.96476296	      6.20093257	      8.77153275	     -7.05770990	      6.40217143	    -13.73058783	     -2.02766936	     -9.26341145	     -1.76062195	      0.35503847
      1.55800000	      3.78337321	      1.41442249	      0.69024692	      0.43079279	      1.04281676	      0.29181609	     21.93240368	     -4.79878940	    -10.36430631	    -51.88183843	      3.30035377	     -8.19223411	      0.85390153	     -5.30361340	      6.09953544	      8.91560718	     -6.86914169	      6.50674894	    -13.68245201	     -2.04231762	     -9.28598165	     -1.64392874	      0.21331952
      1.56216667	      3.75391555	      1.35493202	      0.83383437	      0.43552368	      1.04274488	      0.29150216	     22.12411454	     -4.68167677	    -10.43552284	    -50.46197071	      3.31361946	     -8.51928741	      0.77772334	     -5.67168905	      6.00842230	      9.05529012	     -6.64471145	      6.61233438	    -13.64327263	     -2.06978285	     -9.31926223	     -1.56495188	     -0.01356098
      1.56633333	      3.69575450	      1.29219408	      0.98865863	      0.44028085	      1.04259463	      0.29118119	     22.31779852	     -4.56535197	    -10.52239780	    -48.98946068	      3.34198040	     -8.79888805	      0.69873580	     -5.99688314	      5.91298370	      9.19236108	     -6.44967099	      6.73512900	    -13.61249762	     -2.09575960	     -9.29986972	     -1.47374687	     -0.18882274
      1.57050000	      3.64306607	      1.23304377	      1.14680788	      0.44504424	      1.04242534	      0.29088056	     22.47675084	     -4.44692583	    -10.60185372	    -47.45488084	      3.35036637	     -9.07703844	      0.61946666	     -6.32154159	      5.81881812	      9.33030721	     -6.26940882	      6.85926091	    -13.57812081	     -2.11933993	     -9.28147625	     -1.38302846	     -0.35285245
